<svg width="255" height="36" xmlns="http://www.w3.org/2000/svg">
  <path d="M25.84 24.536h-6.48V35h-3.744V24.536H.112v-2.784L16.192 1.4h3.168v19.968h6.48v3.168zM15.616 7.4L4.528 21.368h11.088V7.4zM50.8 9.896c0 2.944-1.392 6.224-4.176 9.84-2.784 3.616-6.672 7.552-11.664 11.808h16.896V35H30.544v-3.456a94.567 94.567 0 0 1 2.496-2.256c1.056-.928 2.192-1.96 3.408-3.096a99.46 99.46 0 0 0 3.72-3.672 41.707 41.707 0 0 0 3.432-4.032c1.024-1.376 1.856-2.752 2.496-4.128.64-1.376.96-2.704.96-3.984 0-1.92-.504-3.432-1.512-4.536-1.008-1.104-2.52-1.656-4.536-1.656-1.728 0-3.184.192-4.368.576a10.634 10.634 0 0 0-3.216 1.68L31.792 3.8a15.482 15.482 0 0 1 4.584-2.256c1.616-.48 3.384-.72 5.304-.72 3.008 0 5.28.816 6.816 2.448 1.536 1.632 2.304 3.84 2.304 6.624zm7.44 8.304c0-2.72.24-5.16.72-7.32s1.2-3.984 2.16-5.472C62.08 3.92 63.296 2.784 64.768 2 66.24 1.216 67.984.824 70 .824c2.144 0 3.96.384 5.448 1.152 1.488.768 2.696 1.888 3.624 3.36.928 1.472 1.6 3.288 2.016 5.448.416 2.16.624 4.632.624 7.416 0 2.72-.24 5.16-.72 7.32s-1.2 3.984-2.16 5.472c-.96 1.488-2.176 2.624-3.648 3.408-1.472.784-3.216 1.176-5.232 1.176-2.112 0-3.912-.424-5.4-1.272-1.488-.848-2.704-2.04-3.648-3.576s-1.624-3.368-2.04-5.496c-.416-2.128-.624-4.472-.624-7.032zm19.536 0c0-1.696-.096-3.312-.288-4.848L63.232 26.36c.544 1.824 1.36 3.28 2.448 4.368 1.088 1.088 2.512 1.632 4.272 1.632 2.816 0 4.824-1.168 6.024-3.504 1.2-2.336 1.8-5.888 1.8-10.656zm-15.552 0c0 .8.024 1.568.072 2.304.048.736.104 1.456.168 2.16l14.304-12.96c-.544-1.728-1.352-3.104-2.424-4.128C73.272 4.552 71.824 4.04 70 4.04c-2.848 0-4.856 1.176-6.024 3.528-1.168 2.352-1.752 5.896-1.752 10.632zm29.904 1.872c0-.992.176-1.896.528-2.712a6.71 6.71 0 0 1 1.416-2.112 6.094 6.094 0 0 1 2.112-1.368 7.1 7.1 0 0 1 2.616-.48c.928 0 1.8.152 2.616.456.816.304 1.52.744 2.112 1.32a6.425 6.425 0 0 1 1.416 2.088c.352.816.528 1.752.528 2.808 0 1.056-.176 1.992-.528 2.808a6.425 6.425 0 0 1-1.416 2.088 5.983 5.983 0 0 1-2.112 1.32 7.433 7.433 0 0 1-2.616.456c-.928 0-1.8-.152-2.616-.456a5.983 5.983 0 0 1-2.112-1.32 6.425 6.425 0 0 1-1.416-2.088c-.352-.816-.528-1.752-.528-2.808zM138.256 9.08c0 .8-.128 1.616-.384 2.448a8.11 8.11 0 0 1-1.152 2.328 7.68 7.68 0 0 1-1.968 1.896c-.8.544-1.744.96-2.832 1.248v.192c.96.16 1.88.432 2.76.816.88.384 1.656.912 2.328 1.584.672.672 1.216 1.488 1.632 2.448.416.96.624 2.096.624 3.408 0 1.728-.36 3.224-1.08 4.488a9.236 9.236 0 0 1-2.832 3.096c-1.168.8-2.504 1.392-4.008 1.776-1.504.384-3.04.576-4.608.576h-1.92c-.736 0-1.504-.024-2.304-.072-.8-.048-1.6-.112-2.4-.192-.8-.08-1.504-.2-2.112-.36V1.688a53.12 53.12 0 0 1 4.128-.48 63.414 63.414 0 0 1 5.136-.192c1.248 0 2.52.104 3.816.312 1.296.208 2.472.608 3.528 1.2A7.429 7.429 0 0 1 137.224 5c.688 1.056 1.032 2.416 1.032 4.08zM127.12 31.928a11.5 11.5 0 0 0 2.976-.384c.96-.256 1.808-.64 2.544-1.152a5.745 5.745 0 0 0 1.752-1.92c.432-.768.648-1.68.648-2.736 0-1.312-.264-2.368-.792-3.168a5.53 5.53 0 0 0-2.064-1.872c-.848-.448-1.8-.752-2.856-.912a21.119 21.119 0 0 0-3.168-.24h-4.176v12.048c.224.064.544.112.96.144.416.032.864.064 1.344.096.48.032.976.056 1.488.072.512.016.96.024 1.344.024zm-2.64-15.744c.544 0 1.2-.016 1.968-.048s1.408-.08 1.92-.144a13.13 13.13 0 0 0 2.16-.936 8.288 8.288 0 0 0 1.8-1.32 5.951 5.951 0 0 0 1.248-1.728 4.86 4.86 0 0 0 .456-2.112c0-1.056-.2-1.936-.6-2.64a4.63 4.63 0 0 0-1.608-1.68c-.672-.416-1.44-.704-2.304-.864-.864-.16-1.744-.24-2.64-.24-1.056 0-2.024.024-2.904.072-.88.048-1.544.12-1.992.216v11.424h2.496zm29.952 5.952l-12-20.736h4.656l9.6 16.608h.048l9.36-16.608h4.272l-11.952 20.688V35h-3.984V22.136zM172.72 1.4h24.96v8.784h-3.552V4.952h-6.96V35h-3.984V4.952h-6.912v5.232h-3.552V1.4zm32.016 0h19.728v3.552H208.72v10.992h14.544v3.552H208.72v11.952h15.984V35h-19.968V1.4zm34.104 30.12c1.2.336 2.408.504 3.624.504 1.056 0 2.048-.104 2.976-.312.928-.208 1.736-.544 2.424-1.008a5.175 5.175 0 0 0 1.632-1.752c.4-.704.6-1.536.6-2.496 0-1.312-.44-2.384-1.32-3.216-.88-.832-1.976-1.568-3.288-2.208a60.791 60.791 0 0 0-4.272-1.872 25.43 25.43 0 0 1-4.272-2.16 11.993 11.993 0 0 1-3.288-3.048c-.88-1.2-1.32-2.728-1.32-4.584 0-1.312.264-2.496.792-3.552a7.68 7.68 0 0 1 2.232-2.688c.96-.736 2.12-1.304 3.48-1.704 1.36-.4 2.872-.6 4.536-.6 1.92 0 3.664.136 5.232.408 1.568.272 2.816.632 3.744 1.08l.096-.048.048.096-.048.144v7.68h-3.552V5.048c-.8-.192-1.68-.352-2.64-.48a23.272 23.272 0 0 0-3.072-.192c-1.056 0-2.008.128-2.856.384-.848.256-1.568.6-2.16 1.032-.592.432-1.048.936-1.368 1.512a3.701 3.701 0 0 0-.48 1.824c0 1.248.44 2.288 1.32 3.12.88.832 1.976 1.576 3.288 2.232a68.36 68.36 0 0 0 4.272 1.944c1.536.64 2.96 1.384 4.272 2.232 1.312.848 2.408 1.864 3.288 3.048.88 1.184 1.32 2.656 1.32 4.416 0 1.44-.264 2.736-.792 3.888a8.55 8.55 0 0 1-2.256 2.976c-.976.832-2.176 1.472-3.6 1.92-1.424.448-3.032.672-4.824.672-1.216 0-2.368-.096-3.456-.288a23.598 23.598 0 0 1-5.448-1.632A26.2 26.2 0 0 1 232 32.84l.048-.144.288-3.744c3.536 1.488 5.704 2.344 6.504 2.568z" fill="#76BB25" fill-rule="evenodd"/>
</svg>
